<?xml version="1.0" encoding="UTF-8" standalone="no"?>
<!DOCTYPE svg PUBLIC "-//W3C//DTD SVG 1.1//EN"
 "http://www.w3.org/Graphics/SVG/1.1/DTD/svg11.dtd">
<!-- Generated by graphviz version 2.43.0 (0)
 -->
<!-- Title: %3 Pages: 1 -->
<svg width="1343pt" height="154pt"
 viewBox="0.00 0.00 1343.00 154.00" xmlns="http://www.w3.org/2000/svg" xmlns:xlink="http://www.w3.org/1999/xlink">
<g id="graph0" class="graph" transform="scale(1 1) rotate(0) translate(4 150)">
<title>%3</title>
<polygon fill="white" stroke="transparent" points="-4,4 -4,-150 1339,-150 1339,4 -4,4"/>
<!-- 127776544919568 -->
<g id="node1" class="node">
<title>127776544919568</title>
<polygon fill="none" stroke="black" points="736,-54.5 736,-90.5 972,-90.5 972,-54.5 736,-54.5"/>
<text text-anchor="middle" x="749" y="-68.8" font-family="Times,serif" font-size="14.00">d</text>
<polyline fill="none" stroke="black" points="762,-54.5 762,-90.5 "/>
<text text-anchor="middle" x="813" y="-68.8" font-family="Times,serif" font-size="14.00">data 4.0000</text>
<polyline fill="none" stroke="black" points="864,-54.5 864,-90.5 "/>
<text text-anchor="middle" x="918" y="-68.8" font-family="Times,serif" font-size="14.00">grad &#45;2.0000</text>
</g>
<!-- 127776544919760* -->
<g id="node6" class="node">
<title>127776544919760*</title>
<ellipse fill="none" stroke="black" cx="1035" cy="-99.5" rx="27" ry="18"/>
<text text-anchor="middle" x="1035" y="-95.8" font-family="Times,serif" font-size="14.00">*</text>
</g>
<!-- 127776544919568&#45;&gt;127776544919760* -->
<g id="edge8" class="edge">
<title>127776544919568&#45;&gt;127776544919760*</title>
<path fill="none" stroke="black" d="M972.15,-90.17C981.53,-91.58 990.46,-92.93 998.46,-94.14"/>
<polygon fill="black" stroke="black" points="998.01,-97.61 1008.42,-95.64 999.06,-90.69 998.01,-97.61"/>
</g>
<!-- 127776544919568+ -->
<g id="node2" class="node">
<title>127776544919568+</title>
<ellipse fill="none" stroke="black" cx="673" cy="-72.5" rx="27" ry="18"/>
<text text-anchor="middle" x="673" y="-68.8" font-family="Times,serif" font-size="14.00">+</text>
</g>
<!-- 127776544919568+&#45;&gt;127776544919568 -->
<g id="edge1" class="edge">
<title>127776544919568+&#45;&gt;127776544919568</title>
<path fill="none" stroke="black" d="M700.03,-72.5C707.58,-72.5 716.38,-72.5 725.87,-72.5"/>
<polygon fill="black" stroke="black" points="725.99,-76 735.99,-72.5 725.99,-69 725.99,-76"/>
</g>
<!-- 127776547881520 -->
<g id="node3" class="node">
<title>127776547881520</title>
<polygon fill="none" stroke="black" points="737.5,-109.5 737.5,-145.5 970.5,-145.5 970.5,-109.5 737.5,-109.5"/>
<text text-anchor="middle" x="748.5" y="-123.8" font-family="Times,serif" font-size="14.00">f</text>
<polyline fill="none" stroke="black" points="759.5,-109.5 759.5,-145.5 "/>
<text text-anchor="middle" x="813" y="-123.8" font-family="Times,serif" font-size="14.00">data &#45;2.0000</text>
<polyline fill="none" stroke="black" points="866.5,-109.5 866.5,-145.5 "/>
<text text-anchor="middle" x="918.5" y="-123.8" font-family="Times,serif" font-size="14.00">grad 4.0000</text>
</g>
<!-- 127776547881520&#45;&gt;127776544919760* -->
<g id="edge9" class="edge">
<title>127776547881520&#45;&gt;127776544919760*</title>
<path fill="none" stroke="black" d="M970.13,-109.49C980.27,-107.91 989.92,-106.4 998.51,-105.05"/>
<polygon fill="black" stroke="black" points="999.09,-108.5 1008.43,-103.5 998.01,-101.59 999.09,-108.5"/>
</g>
<!-- 127776547846816 -->
<g id="node4" class="node">
<title>127776547846816</title>
<polygon fill="none" stroke="black" points="5,-55.5 5,-91.5 236,-91.5 236,-55.5 5,-55.5"/>
<text text-anchor="middle" x="17.5" y="-69.8" font-family="Times,serif" font-size="14.00">a</text>
<polyline fill="none" stroke="black" points="30,-55.5 30,-91.5 "/>
<text text-anchor="middle" x="81" y="-69.8" font-family="Times,serif" font-size="14.00">data 2.0000</text>
<polyline fill="none" stroke="black" points="132,-55.5 132,-91.5 "/>
<text text-anchor="middle" x="184" y="-69.8" font-family="Times,serif" font-size="14.00">grad 6.0000</text>
</g>
<!-- 127776544918992* -->
<g id="node9" class="node">
<title>127776544918992*</title>
<ellipse fill="none" stroke="black" cx="304" cy="-45.5" rx="27" ry="18"/>
<text text-anchor="middle" x="304" y="-41.8" font-family="Times,serif" font-size="14.00">*</text>
</g>
<!-- 127776547846816&#45;&gt;127776544918992* -->
<g id="edge4" class="edge">
<title>127776547846816&#45;&gt;127776544918992*</title>
<path fill="none" stroke="black" d="M236.19,-55.81C247.37,-54.08 258.02,-52.44 267.41,-50.99"/>
<polygon fill="black" stroke="black" points="268.08,-54.43 277.43,-49.44 267.01,-47.51 268.08,-54.43"/>
</g>
<!-- 127776544919760 -->
<g id="node5" class="node">
<title>127776544919760</title>
<polygon fill="none" stroke="black" points="1098,-81.5 1098,-117.5 1335,-117.5 1335,-81.5 1098,-81.5"/>
<text text-anchor="middle" x="1111" y="-95.8" font-family="Times,serif" font-size="14.00">L</text>
<polyline fill="none" stroke="black" points="1124,-81.5 1124,-117.5 "/>
<text text-anchor="middle" x="1177.5" y="-95.8" font-family="Times,serif" font-size="14.00">data &#45;8.0000</text>
<polyline fill="none" stroke="black" points="1231,-81.5 1231,-117.5 "/>
<text text-anchor="middle" x="1283" y="-95.8" font-family="Times,serif" font-size="14.00">grad 1.0000</text>
</g>
<!-- 127776544919760*&#45;&gt;127776544919760 -->
<g id="edge2" class="edge">
<title>127776544919760*&#45;&gt;127776544919760</title>
<path fill="none" stroke="black" d="M1062.1,-99.5C1069.61,-99.5 1078.33,-99.5 1087.75,-99.5"/>
<polygon fill="black" stroke="black" points="1087.78,-103 1097.78,-99.5 1087.78,-96 1087.78,-103"/>
</g>
<!-- 127776547846432 -->
<g id="node7" class="node">
<title>127776547846432</title>
<polygon fill="none" stroke="black" points="367,-82.5 367,-118.5 610,-118.5 610,-82.5 367,-82.5"/>
<text text-anchor="middle" x="379" y="-96.8" font-family="Times,serif" font-size="14.00">c</text>
<polyline fill="none" stroke="black" points="391,-82.5 391,-118.5 "/>
<text text-anchor="middle" x="446.5" y="-96.8" font-family="Times,serif" font-size="14.00">data 10.0000</text>
<polyline fill="none" stroke="black" points="502,-82.5 502,-118.5 "/>
<text text-anchor="middle" x="556" y="-96.8" font-family="Times,serif" font-size="14.00">grad &#45;2.0000</text>
</g>
<!-- 127776547846432&#45;&gt;127776544919568+ -->
<g id="edge6" class="edge">
<title>127776547846432&#45;&gt;127776544919568+</title>
<path fill="none" stroke="black" d="M606.89,-82.49C617.53,-80.86 627.65,-79.3 636.61,-77.93"/>
<polygon fill="black" stroke="black" points="637.2,-81.38 646.55,-76.4 636.14,-74.46 637.2,-81.38"/>
</g>
<!-- 127776544918992 -->
<g id="node8" class="node">
<title>127776544918992</title>
<polygon fill="none" stroke="black" points="368.5,-27.5 368.5,-63.5 608.5,-63.5 608.5,-27.5 368.5,-27.5"/>
<text text-anchor="middle" x="381" y="-41.8" font-family="Times,serif" font-size="14.00">e</text>
<polyline fill="none" stroke="black" points="393.5,-27.5 393.5,-63.5 "/>
<text text-anchor="middle" x="447" y="-41.8" font-family="Times,serif" font-size="14.00">data &#45;6.0000</text>
<polyline fill="none" stroke="black" points="500.5,-27.5 500.5,-63.5 "/>
<text text-anchor="middle" x="554.5" y="-41.8" font-family="Times,serif" font-size="14.00">grad &#45;2.0000</text>
</g>
<!-- 127776544918992&#45;&gt;127776544919568+ -->
<g id="edge7" class="edge">
<title>127776544918992&#45;&gt;127776544919568+</title>
<path fill="none" stroke="black" d="M608.68,-63.13C618.57,-64.6 627.98,-65.99 636.37,-67.23"/>
<polygon fill="black" stroke="black" points="636.02,-70.71 646.42,-68.72 637.04,-63.79 636.02,-70.71"/>
</g>
<!-- 127776544918992*&#45;&gt;127776544918992 -->
<g id="edge3" class="edge">
<title>127776544918992*&#45;&gt;127776544918992</title>
<path fill="none" stroke="black" d="M331.15,-45.5C338.98,-45.5 348.16,-45.5 358.06,-45.5"/>
<polygon fill="black" stroke="black" points="358.19,-49 368.19,-45.5 358.19,-42 358.19,-49"/>
</g>
<!-- 127776547846624 -->
<g id="node10" class="node">
<title>127776547846624</title>
<polygon fill="none" stroke="black" points="0,-0.5 0,-36.5 241,-36.5 241,-0.5 0,-0.5"/>
<text text-anchor="middle" x="13" y="-14.8" font-family="Times,serif" font-size="14.00">b</text>
<polyline fill="none" stroke="black" points="26,-0.5 26,-36.5 "/>
<text text-anchor="middle" x="79.5" y="-14.8" font-family="Times,serif" font-size="14.00">data &#45;3.0000</text>
<polyline fill="none" stroke="black" points="133,-0.5 133,-36.5 "/>
<text text-anchor="middle" x="187" y="-14.8" font-family="Times,serif" font-size="14.00">grad &#45;4.0000</text>
</g>
<!-- 127776547846624&#45;&gt;127776544918992* -->
<g id="edge5" class="edge">
<title>127776547846624&#45;&gt;127776544918992*</title>
<path fill="none" stroke="black" d="M241.05,-36.28C250.46,-37.68 259.41,-39.02 267.44,-40.21"/>
<polygon fill="black" stroke="black" points="267.01,-43.68 277.41,-41.69 268.04,-36.76 267.01,-43.68"/>
</g>
</g>
</svg>
