<?xml version="1.0" encoding="UTF-8" standalone="no"?>
<!DOCTYPE svg PUBLIC "-//W3C//DTD SVG 1.1//EN"
 "http://www.w3.org/Graphics/SVG/1.1/DTD/svg11.dtd">
<!-- Generated by graphviz version 2.43.0 (0)
 -->
<!-- Title: %3 Pages: 1 -->
<svg width="3479pt" height="236pt"
 viewBox="0.00 0.00 3478.60 236.00" xmlns="http://www.w3.org/2000/svg" xmlns:xlink="http://www.w3.org/1999/xlink">
<g id="graph0" class="graph" transform="scale(1 1) rotate(0) translate(4 232)">
<title>%3</title>
<polygon fill="white" stroke="transparent" points="-4,4 -4,-232 3474.6,-232 3474.6,4 -4,4"/>
<!-- 140138084881408 -->
<g id="node1" class="node">
<title>140138084881408</title>
<polygon fill="none" stroke="black" points="783,-82.5 783,-118.5 1161,-118.5 1161,-82.5 783,-82.5"/>
<text text-anchor="middle" x="866.5" y="-96.8" font-family="Times,serif" font-size="14.00">(x1 * w1) + (x2 * w2)</text>
<polyline fill="none" stroke="black" points="950,-82.5 950,-118.5 "/>
<text text-anchor="middle" x="1003.5" y="-96.8" font-family="Times,serif" font-size="14.00">data &#45;6.0000</text>
<polyline fill="none" stroke="black" points="1057,-82.5 1057,-118.5 "/>
<text text-anchor="middle" x="1109" y="-96.8" font-family="Times,serif" font-size="14.00">grad 0.6347</text>
</g>
<!-- 140138084876560+ -->
<g id="node17" class="node">
<title>140138084876560+</title>
<ellipse fill="none" stroke="black" cx="1224" cy="-127.5" rx="27" ry="18"/>
<text text-anchor="middle" x="1224" y="-123.8" font-family="Times,serif" font-size="14.00">+</text>
</g>
<!-- 140138084881408&#45;&gt;140138084876560+ -->
<g id="edge24" class="edge">
<title>140138084881408&#45;&gt;140138084876560+</title>
<path fill="none" stroke="black" d="M1139.75,-118.51C1157.28,-120.4 1173.57,-122.16 1187.01,-123.61"/>
<polygon fill="black" stroke="black" points="1186.83,-127.11 1197.14,-124.71 1187.58,-120.15 1186.83,-127.11"/>
</g>
<!-- 140138084881408+ -->
<g id="node2" class="node">
<title>140138084881408+</title>
<ellipse fill="none" stroke="black" cx="720" cy="-100.5" rx="27" ry="18"/>
<text text-anchor="middle" x="720" y="-96.8" font-family="Times,serif" font-size="14.00">+</text>
</g>
<!-- 140138084881408+&#45;&gt;140138084881408 -->
<g id="edge1" class="edge">
<title>140138084881408+&#45;&gt;140138084881408</title>
<path fill="none" stroke="black" d="M747.28,-100.5C754.63,-100.5 763.23,-100.5 772.7,-100.5"/>
<polygon fill="black" stroke="black" points="772.87,-104 782.87,-100.5 772.87,-97 772.87,-104"/>
</g>
<!-- 140138084881936 -->
<g id="node3" class="node">
<title>140138084881936</title>
<polygon fill="none" stroke="black" points="3239.6,-135.5 3239.6,-171.5 3470.6,-171.5 3470.6,-135.5 3239.6,-135.5"/>
<text text-anchor="middle" x="3252.1" y="-149.8" font-family="Times,serif" font-size="14.00">o</text>
<polyline fill="none" stroke="black" points="3264.6,-135.5 3264.6,-171.5 "/>
<text text-anchor="middle" x="3315.6" y="-149.8" font-family="Times,serif" font-size="14.00">data 0.6044</text>
<polyline fill="none" stroke="black" points="3366.6,-135.5 3366.6,-171.5 "/>
<text text-anchor="middle" x="3418.6" y="-149.8" font-family="Times,serif" font-size="14.00">grad 1.0000</text>
</g>
<!-- 140138084881936* -->
<g id="node4" class="node">
<title>140138084881936*</title>
<ellipse fill="none" stroke="black" cx="3176.6" cy="-153.5" rx="27" ry="18"/>
<text text-anchor="middle" x="3176.6" y="-149.8" font-family="Times,serif" font-size="14.00">*</text>
</g>
<!-- 140138084881936*&#45;&gt;140138084881936 -->
<g id="edge2" class="edge">
<title>140138084881936*&#45;&gt;140138084881936</title>
<path fill="none" stroke="black" d="M3203.64,-153.5C3211.18,-153.5 3219.96,-153.5 3229.41,-153.5"/>
<polygon fill="black" stroke="black" points="3229.49,-157 3239.49,-153.5 3229.49,-150 3229.49,-157"/>
</g>
<!-- 140138084882512 -->
<g id="node5" class="node">
<title>140138084882512</title>
<polygon fill="none" stroke="black" points="2356.6,-108.5 2356.6,-144.5 2587.6,-144.5 2587.6,-108.5 2356.6,-108.5"/>
<text text-anchor="middle" x="2367.1" y="-122.8" font-family="Times,serif" font-size="14.00"> </text>
<polyline fill="none" stroke="black" points="2377.6,-108.5 2377.6,-144.5 "/>
<text text-anchor="middle" x="2428.6" y="-122.8" font-family="Times,serif" font-size="14.00">data 5.0552</text>
<polyline fill="none" stroke="black" points="2479.6,-108.5 2479.6,-144.5 "/>
<text text-anchor="middle" x="2533.6" y="-122.8" font-family="Times,serif" font-size="14.00">grad &#45;0.1196</text>
</g>
<!-- 140138084882368**&#45;1 -->
<g id="node28" class="node">
<title>140138084882368**&#45;1</title>
<ellipse fill="none" stroke="black" cx="2737.1" cy="-126.5" rx="28.7" ry="18"/>
<text text-anchor="middle" x="2737.1" y="-122.8" font-family="Times,serif" font-size="14.00">**&#45;1</text>
</g>
<!-- 140138084882512&#45;&gt;140138084882368**&#45;1 -->
<g id="edge23" class="edge">
<title>140138084882512&#45;&gt;140138084882368**&#45;1</title>
<path fill="none" stroke="black" d="M2587.69,-126.5C2627.38,-126.5 2669.17,-126.5 2698.25,-126.5"/>
<polygon fill="black" stroke="black" points="2698.37,-130 2708.37,-126.5 2698.37,-123 2698.37,-130"/>
</g>
<!-- 140138084882512+ -->
<g id="node6" class="node">
<title>140138084882512+</title>
<ellipse fill="none" stroke="black" cx="2293.6" cy="-126.5" rx="27" ry="18"/>
<text text-anchor="middle" x="2293.6" y="-122.8" font-family="Times,serif" font-size="14.00">+</text>
</g>
<!-- 140138084882512+&#45;&gt;140138084882512 -->
<g id="edge3" class="edge">
<title>140138084882512+&#45;&gt;140138084882512</title>
<path fill="none" stroke="black" d="M2320.64,-126.5C2328.18,-126.5 2336.96,-126.5 2346.41,-126.5"/>
<polygon fill="black" stroke="black" points="2346.49,-130 2356.49,-126.5 2346.49,-123 2346.49,-130"/>
</g>
<!-- 140138084881504 -->
<g id="node7" class="node">
<title>140138084881504</title>
<polygon fill="none" stroke="black" points="1645,-136.5 1645,-172.5 1872,-172.5 1872,-136.5 1645,-136.5"/>
<text text-anchor="middle" x="1655.5" y="-150.8" font-family="Times,serif" font-size="14.00"> </text>
<polyline fill="none" stroke="black" points="1666,-136.5 1666,-172.5 "/>
<text text-anchor="middle" x="1717" y="-150.8" font-family="Times,serif" font-size="14.00">data 1.4000</text>
<polyline fill="none" stroke="black" points="1768,-136.5 1768,-172.5 "/>
<text text-anchor="middle" x="1820" y="-150.8" font-family="Times,serif" font-size="14.00">grad 0.3174</text>
</g>
<!-- 140138084883088exp -->
<g id="node11" class="node">
<title>140138084883088exp</title>
<ellipse fill="none" stroke="black" cx="1935.3" cy="-154.5" rx="27.1" ry="18"/>
<text text-anchor="middle" x="1935.3" y="-150.8" font-family="Times,serif" font-size="14.00">exp</text>
</g>
<!-- 140138084881504&#45;&gt;140138084883088exp -->
<g id="edge17" class="edge">
<title>140138084881504&#45;&gt;140138084883088exp</title>
<path fill="none" stroke="black" d="M1872.18,-154.5C1881.26,-154.5 1889.95,-154.5 1897.79,-154.5"/>
<polygon fill="black" stroke="black" points="1897.93,-158 1907.93,-154.5 1897.93,-151 1897.93,-158"/>
</g>
<!-- 140138084881504* -->
<g id="node8" class="node">
<title>140138084881504*</title>
<ellipse fill="none" stroke="black" cx="1582" cy="-154.5" rx="27" ry="18"/>
<text text-anchor="middle" x="1582" y="-150.8" font-family="Times,serif" font-size="14.00">*</text>
</g>
<!-- 140138084881504*&#45;&gt;140138084881504 -->
<g id="edge4" class="edge">
<title>140138084881504*&#45;&gt;140138084881504</title>
<path fill="none" stroke="black" d="M1609.12,-154.5C1616.67,-154.5 1625.45,-154.5 1634.9,-154.5"/>
<polygon fill="black" stroke="black" points="1634.95,-158 1644.95,-154.5 1634.95,-151 1634.95,-158"/>
</g>
<!-- 140138084882560 -->
<g id="node9" class="node">
<title>140138084882560</title>
<polygon fill="none" stroke="black" points="1999.1,-81.5 1999.1,-117.5 2230.1,-117.5 2230.1,-81.5 1999.1,-81.5"/>
<text text-anchor="middle" x="2009.6" y="-95.8" font-family="Times,serif" font-size="14.00"> </text>
<polyline fill="none" stroke="black" points="2020.1,-81.5 2020.1,-117.5 "/>
<text text-anchor="middle" x="2071.1" y="-95.8" font-family="Times,serif" font-size="14.00">data 1.0000</text>
<polyline fill="none" stroke="black" points="2122.1,-81.5 2122.1,-117.5 "/>
<text text-anchor="middle" x="2176.1" y="-95.8" font-family="Times,serif" font-size="14.00">grad &#45;0.1196</text>
</g>
<!-- 140138084882560&#45;&gt;140138084882512+ -->
<g id="edge26" class="edge">
<title>140138084882560&#45;&gt;140138084882512+</title>
<path fill="none" stroke="black" d="M2230.19,-116.98C2239.71,-118.43 2248.79,-119.82 2256.93,-121.06"/>
<polygon fill="black" stroke="black" points="2256.63,-124.55 2267.04,-122.6 2257.68,-117.63 2256.63,-124.55"/>
</g>
<!-- 140138084883088 -->
<g id="node10" class="node">
<title>140138084883088</title>
<polygon fill="none" stroke="black" points="1999.1,-136.5 1999.1,-172.5 2230.1,-172.5 2230.1,-136.5 1999.1,-136.5"/>
<text text-anchor="middle" x="2011.6" y="-150.8" font-family="Times,serif" font-size="14.00">e</text>
<polyline fill="none" stroke="black" points="2024.1,-136.5 2024.1,-172.5 "/>
<text text-anchor="middle" x="2075.1" y="-150.8" font-family="Times,serif" font-size="14.00">data 4.0552</text>
<polyline fill="none" stroke="black" points="2126.1,-136.5 2126.1,-172.5 "/>
<text text-anchor="middle" x="2178.1" y="-150.8" font-family="Times,serif" font-size="14.00">grad 0.0783</text>
</g>
<!-- 140138084883088&#45;&gt;140138084882512+ -->
<g id="edge27" class="edge">
<title>140138084883088&#45;&gt;140138084882512+</title>
<path fill="none" stroke="black" d="M2229.69,-136.45C2239.48,-134.9 2248.8,-133.43 2257.14,-132.11"/>
<polygon fill="black" stroke="black" points="2257.79,-135.55 2267.12,-130.53 2256.69,-128.64 2257.79,-135.55"/>
</g>
<!-- 140138084882752+ -->
<g id="node22" class="node">
<title>140138084882752+</title>
<ellipse fill="none" stroke="black" cx="2293.6" cy="-181.5" rx="27" ry="18"/>
<text text-anchor="middle" x="2293.6" y="-177.8" font-family="Times,serif" font-size="14.00">+</text>
</g>
<!-- 140138084883088&#45;&gt;140138084882752+ -->
<g id="edge14" class="edge">
<title>140138084883088&#45;&gt;140138084882752+</title>
<path fill="none" stroke="black" d="M2230.19,-171.98C2239.71,-173.43 2248.79,-174.82 2256.93,-176.06"/>
<polygon fill="black" stroke="black" points="2256.63,-179.55 2267.04,-177.6 2257.68,-172.63 2256.63,-179.55"/>
</g>
<!-- 140138084883088exp&#45;&gt;140138084883088 -->
<g id="edge5" class="edge">
<title>140138084883088exp&#45;&gt;140138084883088</title>
<path fill="none" stroke="black" d="M1962.84,-154.5C1970.44,-154.5 1979.26,-154.5 1988.76,-154.5"/>
<polygon fill="black" stroke="black" points="1988.87,-158 1998.87,-154.5 1988.87,-151 1988.87,-158"/>
</g>
<!-- 140138084881552 -->
<g id="node12" class="node">
<title>140138084881552</title>
<polygon fill="none" stroke="black" points="2.5,-55.5 2.5,-91.5 246.5,-91.5 246.5,-55.5 2.5,-55.5"/>
<text text-anchor="middle" x="21.5" y="-69.8" font-family="Times,serif" font-size="14.00">w2</text>
<polyline fill="none" stroke="black" points="40.5,-55.5 40.5,-91.5 "/>
<text text-anchor="middle" x="91.5" y="-69.8" font-family="Times,serif" font-size="14.00">data 1.0000</text>
<polyline fill="none" stroke="black" points="142.5,-55.5 142.5,-91.5 "/>
<text text-anchor="middle" x="194.5" y="-69.8" font-family="Times,serif" font-size="14.00">grad 0.0000</text>
</g>
<!-- 140138084712368* -->
<g id="node26" class="node">
<title>140138084712368*</title>
<ellipse fill="none" stroke="black" cx="312" cy="-73.5" rx="27" ry="18"/>
<text text-anchor="middle" x="312" y="-69.8" font-family="Times,serif" font-size="14.00">*</text>
</g>
<!-- 140138084881552&#45;&gt;140138084712368* -->
<g id="edge11" class="edge">
<title>140138084881552&#45;&gt;140138084712368*</title>
<path fill="none" stroke="black" d="M246.64,-73.5C256.7,-73.5 266.26,-73.5 274.79,-73.5"/>
<polygon fill="black" stroke="black" points="275,-77 285,-73.5 275,-70 275,-77"/>
</g>
<!-- 140138084881648 -->
<g id="node13" class="node">
<title>140138084881648</title>
<polygon fill="none" stroke="black" points="856,-137.5 856,-173.5 1088,-173.5 1088,-137.5 856,-137.5"/>
<text text-anchor="middle" x="869" y="-151.8" font-family="Times,serif" font-size="14.00">b</text>
<polyline fill="none" stroke="black" points="882,-137.5 882,-173.5 "/>
<text text-anchor="middle" x="933" y="-151.8" font-family="Times,serif" font-size="14.00">data 6.7000</text>
<polyline fill="none" stroke="black" points="984,-137.5 984,-173.5 "/>
<text text-anchor="middle" x="1036" y="-151.8" font-family="Times,serif" font-size="14.00">grad 0.6347</text>
</g>
<!-- 140138084881648&#45;&gt;140138084876560+ -->
<g id="edge21" class="edge">
<title>140138084881648&#45;&gt;140138084876560+</title>
<path fill="none" stroke="black" d="M1088.12,-142.61C1123.94,-138.59 1160.84,-134.46 1186.98,-131.53"/>
<polygon fill="black" stroke="black" points="1187.59,-134.99 1197.13,-130.4 1186.81,-128.03 1187.59,-134.99"/>
</g>
<!-- 140138084882176 -->
<g id="node14" class="node">
<title>140138084882176</title>
<polygon fill="none" stroke="black" points="375,-110.5 375,-146.5 657,-146.5 657,-110.5 375,-110.5"/>
<text text-anchor="middle" x="410.5" y="-124.8" font-family="Times,serif" font-size="14.00">x1 * w1</text>
<polyline fill="none" stroke="black" points="446,-110.5 446,-146.5 "/>
<text text-anchor="middle" x="499.5" y="-124.8" font-family="Times,serif" font-size="14.00">data &#45;6.0000</text>
<polyline fill="none" stroke="black" points="553,-110.5 553,-146.5 "/>
<text text-anchor="middle" x="605" y="-124.8" font-family="Times,serif" font-size="14.00">grad 0.6347</text>
</g>
<!-- 140138084882176&#45;&gt;140138084881408+ -->
<g id="edge15" class="edge">
<title>140138084882176&#45;&gt;140138084881408+</title>
<path fill="none" stroke="black" d="M646.93,-110.49C660.14,-108.66 672.63,-106.93 683.39,-105.44"/>
<polygon fill="black" stroke="black" points="684.1,-108.87 693.52,-104.03 683.14,-101.94 684.1,-108.87"/>
</g>
<!-- 140138084882176* -->
<g id="node15" class="node">
<title>140138084882176*</title>
<ellipse fill="none" stroke="black" cx="312" cy="-128.5" rx="27" ry="18"/>
<text text-anchor="middle" x="312" y="-124.8" font-family="Times,serif" font-size="14.00">*</text>
</g>
<!-- 140138084882176*&#45;&gt;140138084882176 -->
<g id="edge6" class="edge">
<title>140138084882176*&#45;&gt;140138084882176</title>
<path fill="none" stroke="black" d="M339.41,-128.5C346.71,-128.5 355.19,-128.5 364.4,-128.5"/>
<polygon fill="black" stroke="black" points="364.67,-132 374.67,-128.5 364.67,-125 364.67,-132"/>
</g>
<!-- 140138084876560 -->
<g id="node16" class="node">
<title>140138084876560</title>
<polygon fill="none" stroke="black" points="1287,-109.5 1287,-145.5 1519,-145.5 1519,-109.5 1287,-109.5"/>
<text text-anchor="middle" x="1300" y="-123.8" font-family="Times,serif" font-size="14.00">n</text>
<polyline fill="none" stroke="black" points="1313,-109.5 1313,-145.5 "/>
<text text-anchor="middle" x="1364" y="-123.8" font-family="Times,serif" font-size="14.00">data 0.7000</text>
<polyline fill="none" stroke="black" points="1415,-109.5 1415,-145.5 "/>
<text text-anchor="middle" x="1467" y="-123.8" font-family="Times,serif" font-size="14.00">grad 0.6347</text>
</g>
<!-- 140138084876560&#45;&gt;140138084881504* -->
<g id="edge20" class="edge">
<title>140138084876560&#45;&gt;140138084881504*</title>
<path fill="none" stroke="black" d="M1519.09,-145.06C1528.46,-146.49 1537.39,-147.85 1545.4,-149.07"/>
<polygon fill="black" stroke="black" points="1544.96,-152.54 1555.37,-150.59 1546.01,-145.62 1544.96,-152.54"/>
</g>
<!-- 140138084876560+&#45;&gt;140138084876560 -->
<g id="edge7" class="edge">
<title>140138084876560+&#45;&gt;140138084876560</title>
<path fill="none" stroke="black" d="M1251.12,-127.5C1258.53,-127.5 1267.14,-127.5 1276.4,-127.5"/>
<polygon fill="black" stroke="black" points="1276.69,-131 1286.69,-127.5 1276.69,-124 1276.69,-131"/>
</g>
<!-- 140138084703536 -->
<g id="node18" class="node">
<title>140138084703536</title>
<polygon fill="none" stroke="black" points="2.5,-165.5 2.5,-201.5 246.5,-201.5 246.5,-165.5 2.5,-165.5"/>
<text text-anchor="middle" x="19.5" y="-179.8" font-family="Times,serif" font-size="14.00">x1</text>
<polyline fill="none" stroke="black" points="36.5,-165.5 36.5,-201.5 "/>
<text text-anchor="middle" x="87.5" y="-179.8" font-family="Times,serif" font-size="14.00">data 2.0000</text>
<polyline fill="none" stroke="black" points="138.5,-165.5 138.5,-201.5 "/>
<text text-anchor="middle" x="192.5" y="-179.8" font-family="Times,serif" font-size="14.00">grad &#45;1.9042</text>
</g>
<!-- 140138084703536&#45;&gt;140138084882176* -->
<g id="edge18" class="edge">
<title>140138084703536&#45;&gt;140138084882176*</title>
<path fill="none" stroke="black" d="M218.13,-165.46C228.63,-162.77 239.1,-159.78 249,-156.5 259.71,-152.96 271.05,-148.16 281.07,-143.54"/>
<polygon fill="black" stroke="black" points="282.67,-146.66 290.2,-139.21 279.67,-140.33 282.67,-146.66"/>
</g>
<!-- 140138108666176 -->
<g id="node19" class="node">
<title>140138108666176</title>
<polygon fill="none" stroke="black" points="4.5,-0.5 4.5,-36.5 244.5,-36.5 244.5,-0.5 4.5,-0.5"/>
<text text-anchor="middle" x="21.5" y="-14.8" font-family="Times,serif" font-size="14.00">x2</text>
<polyline fill="none" stroke="black" points="38.5,-0.5 38.5,-36.5 "/>
<text text-anchor="middle" x="89.5" y="-14.8" font-family="Times,serif" font-size="14.00">data 0.0000</text>
<polyline fill="none" stroke="black" points="140.5,-0.5 140.5,-36.5 "/>
<text text-anchor="middle" x="192.5" y="-14.8" font-family="Times,serif" font-size="14.00">grad 0.6347</text>
</g>
<!-- 140138108666176&#45;&gt;140138084712368* -->
<g id="edge19" class="edge">
<title>140138108666176&#45;&gt;140138084712368*</title>
<path fill="none" stroke="black" d="M218.13,-36.54C228.63,-39.23 239.1,-42.22 249,-45.5 259.71,-49.04 271.05,-53.84 281.07,-58.46"/>
<polygon fill="black" stroke="black" points="279.67,-61.67 290.2,-62.79 282.67,-55.34 279.67,-61.67"/>
</g>
<!-- 140138084881744 -->
<g id="node20" class="node">
<title>140138084881744</title>
<polygon fill="none" stroke="black" points="1289.5,-164.5 1289.5,-200.5 1516.5,-200.5 1516.5,-164.5 1289.5,-164.5"/>
<text text-anchor="middle" x="1300" y="-178.8" font-family="Times,serif" font-size="14.00"> </text>
<polyline fill="none" stroke="black" points="1310.5,-164.5 1310.5,-200.5 "/>
<text text-anchor="middle" x="1361.5" y="-178.8" font-family="Times,serif" font-size="14.00">data 2.0000</text>
<polyline fill="none" stroke="black" points="1412.5,-164.5 1412.5,-200.5 "/>
<text text-anchor="middle" x="1464.5" y="-178.8" font-family="Times,serif" font-size="14.00">grad 0.2222</text>
</g>
<!-- 140138084881744&#45;&gt;140138084881504* -->
<g id="edge22" class="edge">
<title>140138084881744&#45;&gt;140138084881504*</title>
<path fill="none" stroke="black" d="M1516.6,-164.69C1526.87,-163.06 1536.68,-161.51 1545.4,-160.13"/>
<polygon fill="black" stroke="black" points="1546.14,-163.56 1555.47,-158.54 1545.04,-156.64 1546.14,-163.56"/>
</g>
<!-- 140138084882752 -->
<g id="node21" class="node">
<title>140138084882752</title>
<polygon fill="none" stroke="black" points="2623.6,-163.5 2623.6,-199.5 2850.6,-199.5 2850.6,-163.5 2623.6,-163.5"/>
<text text-anchor="middle" x="2634.1" y="-177.8" font-family="Times,serif" font-size="14.00"> </text>
<polyline fill="none" stroke="black" points="2644.6,-163.5 2644.6,-199.5 "/>
<text text-anchor="middle" x="2695.6" y="-177.8" font-family="Times,serif" font-size="14.00">data 3.0552</text>
<polyline fill="none" stroke="black" points="2746.6,-163.5 2746.6,-199.5 "/>
<text text-anchor="middle" x="2798.6" y="-177.8" font-family="Times,serif" font-size="14.00">grad 0.1978</text>
</g>
<!-- 140138084882752&#45;&gt;140138084881936* -->
<g id="edge16" class="edge">
<title>140138084882752&#45;&gt;140138084881936*</title>
<path fill="none" stroke="black" d="M2850.69,-175.17C2925.29,-170.84 3025.32,-164.76 3113.6,-158.5 3122.02,-157.9 3131.08,-157.2 3139.61,-156.52"/>
<polygon fill="black" stroke="black" points="3139.98,-160 3149.66,-155.7 3139.41,-153.03 3139.98,-160"/>
</g>
<!-- 140138084882752+&#45;&gt;140138084882752 -->
<g id="edge8" class="edge">
<title>140138084882752+&#45;&gt;140138084882752</title>
<path fill="none" stroke="black" d="M2320.89,-181.5C2377.16,-181.5 2512.31,-181.5 2613.23,-181.5"/>
<polygon fill="black" stroke="black" points="2613.5,-185 2623.5,-181.5 2613.5,-178 2613.5,-185"/>
</g>
<!-- 140138086643568 -->
<g id="node23" class="node">
<title>140138086643568</title>
<polygon fill="none" stroke="black" points="0,-110.5 0,-146.5 249,-146.5 249,-110.5 0,-110.5"/>
<text text-anchor="middle" x="19" y="-124.8" font-family="Times,serif" font-size="14.00">w1</text>
<polyline fill="none" stroke="black" points="38,-110.5 38,-146.5 "/>
<text text-anchor="middle" x="91.5" y="-124.8" font-family="Times,serif" font-size="14.00">data &#45;3.0000</text>
<polyline fill="none" stroke="black" points="145,-110.5 145,-146.5 "/>
<text text-anchor="middle" x="197" y="-124.8" font-family="Times,serif" font-size="14.00">grad 1.2695</text>
</g>
<!-- 140138086643568&#45;&gt;140138084882176* -->
<g id="edge25" class="edge">
<title>140138086643568&#45;&gt;140138084882176*</title>
<path fill="none" stroke="black" d="M249.23,-128.5C258.37,-128.5 267.05,-128.5 274.87,-128.5"/>
<polygon fill="black" stroke="black" points="274.95,-132 284.95,-128.5 274.95,-125 274.95,-132"/>
</g>
<!-- 140138084882848 -->
<g id="node24" class="node">
<title>140138084882848</title>
<polygon fill="none" stroke="black" points="1998.6,-191.5 1998.6,-227.5 2230.6,-227.5 2230.6,-191.5 1998.6,-191.5"/>
<text text-anchor="middle" x="2009.1" y="-205.8" font-family="Times,serif" font-size="14.00"> </text>
<polyline fill="none" stroke="black" points="2019.6,-191.5 2019.6,-227.5 "/>
<text text-anchor="middle" x="2073.1" y="-205.8" font-family="Times,serif" font-size="14.00">data &#45;1.0000</text>
<polyline fill="none" stroke="black" points="2126.6,-191.5 2126.6,-227.5 "/>
<text text-anchor="middle" x="2178.6" y="-205.8" font-family="Times,serif" font-size="14.00">grad 0.1978</text>
</g>
<!-- 140138084882848&#45;&gt;140138084882752+ -->
<g id="edge12" class="edge">
<title>140138084882848&#45;&gt;140138084882752+</title>
<path fill="none" stroke="black" d="M2229.69,-191.45C2239.48,-189.9 2248.8,-188.43 2257.14,-187.11"/>
<polygon fill="black" stroke="black" points="2257.79,-190.55 2267.12,-185.53 2256.69,-183.64 2257.79,-190.55"/>
</g>
<!-- 140138084712368 -->
<g id="node25" class="node">
<title>140138084712368</title>
<polygon fill="none" stroke="black" points="377.5,-55.5 377.5,-91.5 654.5,-91.5 654.5,-55.5 377.5,-55.5"/>
<text text-anchor="middle" x="413" y="-69.8" font-family="Times,serif" font-size="14.00">x2 * w2</text>
<polyline fill="none" stroke="black" points="448.5,-55.5 448.5,-91.5 "/>
<text text-anchor="middle" x="499.5" y="-69.8" font-family="Times,serif" font-size="14.00">data 0.0000</text>
<polyline fill="none" stroke="black" points="550.5,-55.5 550.5,-91.5 "/>
<text text-anchor="middle" x="602.5" y="-69.8" font-family="Times,serif" font-size="14.00">grad 0.6347</text>
</g>
<!-- 140138084712368&#45;&gt;140138084881408+ -->
<g id="edge13" class="edge">
<title>140138084712368&#45;&gt;140138084881408+</title>
<path fill="none" stroke="black" d="M651.74,-91.51C663.09,-93.03 673.81,-94.46 683.21,-95.72"/>
<polygon fill="black" stroke="black" points="682.85,-99.2 693.22,-97.05 683.78,-92.26 682.85,-99.2"/>
</g>
<!-- 140138084712368*&#45;&gt;140138084712368 -->
<g id="edge9" class="edge">
<title>140138084712368*&#45;&gt;140138084712368</title>
<path fill="none" stroke="black" d="M339.41,-73.5C347.43,-73.5 356.87,-73.5 367.15,-73.5"/>
<polygon fill="black" stroke="black" points="367.23,-77 377.23,-73.5 367.23,-70 367.23,-77"/>
</g>
<!-- 140138084882368 -->
<g id="node27" class="node">
<title>140138084882368</title>
<polygon fill="none" stroke="black" points="2886.6,-112.5 2886.6,-148.5 3113.6,-148.5 3113.6,-112.5 2886.6,-112.5"/>
<text text-anchor="middle" x="2897.1" y="-126.8" font-family="Times,serif" font-size="14.00"> </text>
<polyline fill="none" stroke="black" points="2907.6,-112.5 2907.6,-148.5 "/>
<text text-anchor="middle" x="2958.6" y="-126.8" font-family="Times,serif" font-size="14.00">data 0.1978</text>
<polyline fill="none" stroke="black" points="3009.6,-112.5 3009.6,-148.5 "/>
<text text-anchor="middle" x="3061.6" y="-126.8" font-family="Times,serif" font-size="14.00">grad 3.0552</text>
</g>
<!-- 140138084882368&#45;&gt;140138084881936* -->
<g id="edge28" class="edge">
<title>140138084882368&#45;&gt;140138084881936*</title>
<path fill="none" stroke="black" d="M3114.07,-145.39C3123.17,-146.59 3131.86,-147.74 3139.69,-148.77"/>
<polygon fill="black" stroke="black" points="3139.43,-152.26 3149.8,-150.1 3140.34,-145.32 3139.43,-152.26"/>
</g>
<!-- 140138084882368**&#45;1&#45;&gt;140138084882368 -->
<g id="edge10" class="edge">
<title>140138084882368**&#45;1&#45;&gt;140138084882368</title>
<path fill="none" stroke="black" d="M2766.03,-126.93C2792.75,-127.34 2834.99,-127.98 2876.21,-128.62"/>
<polygon fill="black" stroke="black" points="2876.32,-132.12 2886.37,-128.77 2876.43,-125.12 2876.32,-132.12"/>
</g>
</g>
</svg>
