<?xml version="1.0" encoding="UTF-8" standalone="no"?>
<!DOCTYPE svg PUBLIC "-//W3C//DTD SVG 1.1//EN"
 "http://www.w3.org/Graphics/SVG/1.1/DTD/svg11.dtd">
<!-- Generated by graphviz version 2.43.0 (0)
 -->
<!-- Title: %3 Pages: 1 -->
<svg width="1894pt" height="210pt"
 viewBox="0.00 0.00 1893.69 210.00" xmlns="http://www.w3.org/2000/svg" xmlns:xlink="http://www.w3.org/1999/xlink">
<g id="graph0" class="graph" transform="scale(1 1) rotate(0) translate(4 206)">
<title>%3</title>
<polygon fill="white" stroke="transparent" points="-4,4 -4,-206 1889.69,-206 1889.69,4 -4,4"/>
<!-- 140138084880880 -->
<g id="node1" class="node">
<title>140138084880880</title>
<polygon fill="none" stroke="black" points="1287,-109.5 1287,-145.5 1519,-145.5 1519,-109.5 1287,-109.5"/>
<text text-anchor="middle" x="1300" y="-123.8" font-family="Times,serif" font-size="14.00">n</text>
<polyline fill="none" stroke="black" points="1313,-109.5 1313,-145.5 "/>
<text text-anchor="middle" x="1364" y="-123.8" font-family="Times,serif" font-size="14.00">data 0.7000</text>
<polyline fill="none" stroke="black" points="1415,-109.5 1415,-145.5 "/>
<text text-anchor="middle" x="1467" y="-123.8" font-family="Times,serif" font-size="14.00">grad 0.6347</text>
</g>
<!-- 140138084881072tanh -->
<g id="node7" class="node">
<title>140138084881072tanh</title>
<ellipse fill="none" stroke="black" cx="1586.85" cy="-127.5" rx="31.7" ry="18"/>
<text text-anchor="middle" x="1586.85" y="-123.8" font-family="Times,serif" font-size="14.00">tanh</text>
</g>
<!-- 140138084880880&#45;&gt;140138084881072tanh -->
<g id="edge14" class="edge">
<title>140138084880880&#45;&gt;140138084881072tanh</title>
<path fill="none" stroke="black" d="M1519.17,-127.5C1528.08,-127.5 1536.66,-127.5 1544.53,-127.5"/>
<polygon fill="black" stroke="black" points="1544.78,-131 1554.78,-127.5 1544.78,-124 1544.78,-131"/>
</g>
<!-- 140138084880880+ -->
<g id="node2" class="node">
<title>140138084880880+</title>
<ellipse fill="none" stroke="black" cx="1224" cy="-127.5" rx="27" ry="18"/>
<text text-anchor="middle" x="1224" y="-123.8" font-family="Times,serif" font-size="14.00">+</text>
</g>
<!-- 140138084880880+&#45;&gt;140138084880880 -->
<g id="edge1" class="edge">
<title>140138084880880+&#45;&gt;140138084880880</title>
<path fill="none" stroke="black" d="M1251.12,-127.5C1258.53,-127.5 1267.14,-127.5 1276.4,-127.5"/>
<polygon fill="black" stroke="black" points="1276.69,-131 1286.69,-127.5 1276.69,-124 1276.69,-131"/>
</g>
<!-- 140138084880496 -->
<g id="node3" class="node">
<title>140138084880496</title>
<polygon fill="none" stroke="black" points="377.5,-110.5 377.5,-146.5 654.5,-146.5 654.5,-110.5 377.5,-110.5"/>
<text text-anchor="middle" x="413" y="-124.8" font-family="Times,serif" font-size="14.00">x2 * w2</text>
<polyline fill="none" stroke="black" points="448.5,-110.5 448.5,-146.5 "/>
<text text-anchor="middle" x="499.5" y="-124.8" font-family="Times,serif" font-size="14.00">data 0.0000</text>
<polyline fill="none" stroke="black" points="550.5,-110.5 550.5,-146.5 "/>
<text text-anchor="middle" x="602.5" y="-124.8" font-family="Times,serif" font-size="14.00">grad 0.6347</text>
</g>
<!-- 140138084880688+ -->
<g id="node12" class="node">
<title>140138084880688+</title>
<ellipse fill="none" stroke="black" cx="720" cy="-100.5" rx="27" ry="18"/>
<text text-anchor="middle" x="720" y="-96.8" font-family="Times,serif" font-size="14.00">+</text>
</g>
<!-- 140138084880496&#45;&gt;140138084880688+ -->
<g id="edge8" class="edge">
<title>140138084880496&#45;&gt;140138084880688+</title>
<path fill="none" stroke="black" d="M646.93,-110.49C660.14,-108.66 672.63,-106.93 683.39,-105.44"/>
<polygon fill="black" stroke="black" points="684.1,-108.87 693.52,-104.03 683.14,-101.94 684.1,-108.87"/>
</g>
<!-- 140138084880496* -->
<g id="node4" class="node">
<title>140138084880496*</title>
<ellipse fill="none" stroke="black" cx="312" cy="-128.5" rx="27" ry="18"/>
<text text-anchor="middle" x="312" y="-124.8" font-family="Times,serif" font-size="14.00">*</text>
</g>
<!-- 140138084880496*&#45;&gt;140138084880496 -->
<g id="edge2" class="edge">
<title>140138084880496*&#45;&gt;140138084880496</title>
<path fill="none" stroke="black" d="M339.41,-128.5C347.43,-128.5 356.87,-128.5 367.15,-128.5"/>
<polygon fill="black" stroke="black" points="367.23,-132 377.23,-128.5 367.23,-125 367.23,-132"/>
</g>
<!-- 140138084698256 -->
<g id="node5" class="node">
<title>140138084698256</title>
<polygon fill="none" stroke="black" points="4.5,-165.5 4.5,-201.5 244.5,-201.5 244.5,-165.5 4.5,-165.5"/>
<text text-anchor="middle" x="21.5" y="-179.8" font-family="Times,serif" font-size="14.00">x2</text>
<polyline fill="none" stroke="black" points="38.5,-165.5 38.5,-201.5 "/>
<text text-anchor="middle" x="89.5" y="-179.8" font-family="Times,serif" font-size="14.00">data 0.0000</text>
<polyline fill="none" stroke="black" points="140.5,-165.5 140.5,-201.5 "/>
<text text-anchor="middle" x="192.5" y="-179.8" font-family="Times,serif" font-size="14.00">grad 0.6347</text>
</g>
<!-- 140138084698256&#45;&gt;140138084880496* -->
<g id="edge13" class="edge">
<title>140138084698256&#45;&gt;140138084880496*</title>
<path fill="none" stroke="black" d="M218.13,-165.46C228.63,-162.77 239.1,-159.78 249,-156.5 259.71,-152.96 271.05,-148.16 281.07,-143.54"/>
<polygon fill="black" stroke="black" points="282.67,-146.66 290.2,-139.21 279.67,-140.33 282.67,-146.66"/>
</g>
<!-- 140138084881072 -->
<g id="node6" class="node">
<title>140138084881072</title>
<polygon fill="none" stroke="black" points="1654.69,-109.5 1654.69,-145.5 1885.69,-145.5 1885.69,-109.5 1654.69,-109.5"/>
<text text-anchor="middle" x="1667.19" y="-123.8" font-family="Times,serif" font-size="14.00">o</text>
<polyline fill="none" stroke="black" points="1679.69,-109.5 1679.69,-145.5 "/>
<text text-anchor="middle" x="1730.69" y="-123.8" font-family="Times,serif" font-size="14.00">data 0.6044</text>
<polyline fill="none" stroke="black" points="1781.69,-109.5 1781.69,-145.5 "/>
<text text-anchor="middle" x="1833.69" y="-123.8" font-family="Times,serif" font-size="14.00">grad 1.0000</text>
</g>
<!-- 140138084881072tanh&#45;&gt;140138084881072 -->
<g id="edge3" class="edge">
<title>140138084881072tanh&#45;&gt;140138084881072</title>
<path fill="none" stroke="black" d="M1619.02,-127.5C1626.61,-127.5 1635.19,-127.5 1644.31,-127.5"/>
<polygon fill="black" stroke="black" points="1644.4,-131 1654.4,-127.5 1644.4,-124 1644.4,-131"/>
</g>
<!-- 140138084880064 -->
<g id="node8" class="node">
<title>140138084880064</title>
<polygon fill="none" stroke="black" points="2.5,-110.5 2.5,-146.5 246.5,-146.5 246.5,-110.5 2.5,-110.5"/>
<text text-anchor="middle" x="21.5" y="-124.8" font-family="Times,serif" font-size="14.00">w2</text>
<polyline fill="none" stroke="black" points="40.5,-110.5 40.5,-146.5 "/>
<text text-anchor="middle" x="91.5" y="-124.8" font-family="Times,serif" font-size="14.00">data 1.0000</text>
<polyline fill="none" stroke="black" points="142.5,-110.5 142.5,-146.5 "/>
<text text-anchor="middle" x="194.5" y="-124.8" font-family="Times,serif" font-size="14.00">grad 0.0000</text>
</g>
<!-- 140138084880064&#45;&gt;140138084880496* -->
<g id="edge11" class="edge">
<title>140138084880064&#45;&gt;140138084880496*</title>
<path fill="none" stroke="black" d="M246.64,-128.5C256.7,-128.5 266.26,-128.5 274.79,-128.5"/>
<polygon fill="black" stroke="black" points="275,-132 285,-128.5 275,-125 275,-132"/>
</g>
<!-- 140138084704496 -->
<g id="node9" class="node">
<title>140138084704496</title>
<polygon fill="none" stroke="black" points="2.5,-55.5 2.5,-91.5 246.5,-91.5 246.5,-55.5 2.5,-55.5"/>
<text text-anchor="middle" x="19.5" y="-69.8" font-family="Times,serif" font-size="14.00">x1</text>
<polyline fill="none" stroke="black" points="36.5,-55.5 36.5,-91.5 "/>
<text text-anchor="middle" x="87.5" y="-69.8" font-family="Times,serif" font-size="14.00">data 2.0000</text>
<polyline fill="none" stroke="black" points="138.5,-55.5 138.5,-91.5 "/>
<text text-anchor="middle" x="192.5" y="-69.8" font-family="Times,serif" font-size="14.00">grad &#45;1.9042</text>
</g>
<!-- 140138084880304* -->
<g id="node14" class="node">
<title>140138084880304*</title>
<ellipse fill="none" stroke="black" cx="312" cy="-73.5" rx="27" ry="18"/>
<text text-anchor="middle" x="312" y="-69.8" font-family="Times,serif" font-size="14.00">*</text>
</g>
<!-- 140138084704496&#45;&gt;140138084880304* -->
<g id="edge7" class="edge">
<title>140138084704496&#45;&gt;140138084880304*</title>
<path fill="none" stroke="black" d="M246.64,-73.5C256.7,-73.5 266.26,-73.5 274.79,-73.5"/>
<polygon fill="black" stroke="black" points="275,-77 285,-73.5 275,-70 275,-77"/>
</g>
<!-- 140138084880112 -->
<g id="node10" class="node">
<title>140138084880112</title>
<polygon fill="none" stroke="black" points="856,-137.5 856,-173.5 1088,-173.5 1088,-137.5 856,-137.5"/>
<text text-anchor="middle" x="869" y="-151.8" font-family="Times,serif" font-size="14.00">b</text>
<polyline fill="none" stroke="black" points="882,-137.5 882,-173.5 "/>
<text text-anchor="middle" x="933" y="-151.8" font-family="Times,serif" font-size="14.00">data 6.7000</text>
<polyline fill="none" stroke="black" points="984,-137.5 984,-173.5 "/>
<text text-anchor="middle" x="1036" y="-151.8" font-family="Times,serif" font-size="14.00">grad 0.6347</text>
</g>
<!-- 140138084880112&#45;&gt;140138084880880+ -->
<g id="edge9" class="edge">
<title>140138084880112&#45;&gt;140138084880880+</title>
<path fill="none" stroke="black" d="M1088.12,-142.61C1123.94,-138.59 1160.84,-134.46 1186.98,-131.53"/>
<polygon fill="black" stroke="black" points="1187.59,-134.99 1197.13,-130.4 1186.81,-128.03 1187.59,-134.99"/>
</g>
<!-- 140138084880688 -->
<g id="node11" class="node">
<title>140138084880688</title>
<polygon fill="none" stroke="black" points="783,-82.5 783,-118.5 1161,-118.5 1161,-82.5 783,-82.5"/>
<text text-anchor="middle" x="866.5" y="-96.8" font-family="Times,serif" font-size="14.00">(x1 * w1) + (x2 * w2)</text>
<polyline fill="none" stroke="black" points="950,-82.5 950,-118.5 "/>
<text text-anchor="middle" x="1003.5" y="-96.8" font-family="Times,serif" font-size="14.00">data &#45;6.0000</text>
<polyline fill="none" stroke="black" points="1057,-82.5 1057,-118.5 "/>
<text text-anchor="middle" x="1109" y="-96.8" font-family="Times,serif" font-size="14.00">grad 0.6347</text>
</g>
<!-- 140138084880688&#45;&gt;140138084880880+ -->
<g id="edge10" class="edge">
<title>140138084880688&#45;&gt;140138084880880+</title>
<path fill="none" stroke="black" d="M1139.75,-118.51C1157.28,-120.4 1173.57,-122.16 1187.01,-123.61"/>
<polygon fill="black" stroke="black" points="1186.83,-127.11 1197.14,-124.71 1187.58,-120.15 1186.83,-127.11"/>
</g>
<!-- 140138084880688+&#45;&gt;140138084880688 -->
<g id="edge4" class="edge">
<title>140138084880688+&#45;&gt;140138084880688</title>
<path fill="none" stroke="black" d="M747.28,-100.5C754.63,-100.5 763.23,-100.5 772.7,-100.5"/>
<polygon fill="black" stroke="black" points="772.87,-104 782.87,-100.5 772.87,-97 772.87,-104"/>
</g>
<!-- 140138084880304 -->
<g id="node13" class="node">
<title>140138084880304</title>
<polygon fill="none" stroke="black" points="375,-55.5 375,-91.5 657,-91.5 657,-55.5 375,-55.5"/>
<text text-anchor="middle" x="410.5" y="-69.8" font-family="Times,serif" font-size="14.00">x1 * w1</text>
<polyline fill="none" stroke="black" points="446,-55.5 446,-91.5 "/>
<text text-anchor="middle" x="499.5" y="-69.8" font-family="Times,serif" font-size="14.00">data &#45;6.0000</text>
<polyline fill="none" stroke="black" points="553,-55.5 553,-91.5 "/>
<text text-anchor="middle" x="605" y="-69.8" font-family="Times,serif" font-size="14.00">grad 0.6347</text>
</g>
<!-- 140138084880304&#45;&gt;140138084880688+ -->
<g id="edge6" class="edge">
<title>140138084880304&#45;&gt;140138084880688+</title>
<path fill="none" stroke="black" d="M651.74,-91.51C663.09,-93.03 673.81,-94.46 683.21,-95.72"/>
<polygon fill="black" stroke="black" points="682.85,-99.2 693.22,-97.05 683.78,-92.26 682.85,-99.2"/>
</g>
<!-- 140138084880304*&#45;&gt;140138084880304 -->
<g id="edge5" class="edge">
<title>140138084880304*&#45;&gt;140138084880304</title>
<path fill="none" stroke="black" d="M339.41,-73.5C346.71,-73.5 355.19,-73.5 364.4,-73.5"/>
<polygon fill="black" stroke="black" points="364.67,-77 374.67,-73.5 364.67,-70 364.67,-77"/>
</g>
<!-- 140138084879344 -->
<g id="node15" class="node">
<title>140138084879344</title>
<polygon fill="none" stroke="black" points="0,-0.5 0,-36.5 249,-36.5 249,-0.5 0,-0.5"/>
<text text-anchor="middle" x="19" y="-14.8" font-family="Times,serif" font-size="14.00">w1</text>
<polyline fill="none" stroke="black" points="38,-0.5 38,-36.5 "/>
<text text-anchor="middle" x="91.5" y="-14.8" font-family="Times,serif" font-size="14.00">data &#45;3.0000</text>
<polyline fill="none" stroke="black" points="145,-0.5 145,-36.5 "/>
<text text-anchor="middle" x="197" y="-14.8" font-family="Times,serif" font-size="14.00">grad 1.2695</text>
</g>
<!-- 140138084879344&#45;&gt;140138084880304* -->
<g id="edge12" class="edge">
<title>140138084879344&#45;&gt;140138084880304*</title>
<path fill="none" stroke="black" d="M214.42,-36.55C226.15,-39.54 237.93,-42.87 249,-46.5 259.46,-49.93 270.57,-54.47 280.46,-58.84"/>
<polygon fill="black" stroke="black" points="279.31,-62.17 289.87,-63.12 282.21,-55.79 279.31,-62.17"/>
</g>
</g>
</svg>
